<?xml version="1.0" encoding="UTF-8"?>
<svg width="40px" height="40px" viewBox="0 0 40 40" version="1.1" xmlns="http://www.w3.org/2000/svg" xmlns:xlink="http://www.w3.org/1999/xlink">
    <title>logo</title>
    <defs>
        <linearGradient x1="50%" y1="9.26350108%" x2="50%" y2="100%" id="linearGradient-1">
            <stop stop-color="#0062EB" offset="0%"></stop>
            <stop stop-color="#04EBDD" offset="100%"></stop>
        </linearGradient>
    </defs>
    <g id="V1.0_0613" stroke="none" stroke-width="1" fill="none" fill-rule="evenodd">
        <g id="logo">
            <rect id="矩形" x="0" y="0" width="40" height="40"></rect>
            <path d="M36.2,7.59999998 L37,7.59999998 C38.6568542,7.59999998 40,8.94314573 40,10.6 C40,12.2568542 38.6568542,13.6 37,13.6 L36.2,13.6 C34.5431458,13.6 33.2,12.2568542 33.2,10.6 C33.2,8.94314573 34.5431458,7.59999998 36.2,7.59999998 Z M36.6,14.4 C38.4777681,14.4 40,15.9222318 40,17.8 L40,32.4 L40,32.4 L33.2,32.4 L33.2,17.8 C33.2,15.9222318 34.7222319,14.4 36.6,14.4 Z M24.4006534,7.20000074 L27.2046236,7.20324182 L27.2046236,7.20324182 C29.4119557,7.20579325 31.2,8.99590554 31.2,11.2032391 L31.2,32.4 L24.4,32.4 L24.3996,27.1964896 L19.9998488,31.6078488 C19.2900329,32.3449123 18.2993971,32.7776355 17.2000487,32.799215 L3.6,32.8 C1.6117749,32.8 0,31.1882251 0,29.2 L0,26.3998488 C0.0116437291,25.2335451 0.52231117,24.1866309 1.32876959,23.4626156 L16.3770601,8.4145396 C16.3823203,8.40927944 16.3908487,8.4092795 16.3961089,8.41453973 C16.3986294,8.41706027 16.400048,8.42047713 16.400054,8.42404168 L16.400054,8.42404168 L16.400054,8.42404168 C17.1103981,7.68725677 18.100842,7.22235973 19.1999513,7.200785 L24.3993466,7.20000008 C24.3997822,7.20000002 24.4002178,7.20000023 24.4006534,7.20000074 Z M24.3996,13.9998488 L20.4084,13.9998488 L8.40784879,25.9998488 L15.9914488,25.9998488 L24.3998488,17.5914488 L24.3996,13.9998488 Z" fill="url(#linearGradient-1)"></path>
        </g>
    </g>
</svg>